<svg xmlns="http://www.w3.org/2000/svg" xmlns:xlink="http://www.w3.org/1999/xlink" xmlns:lucid="lucid" width="2126" height="824"><g transform="translate(393 -68)" lucid:page-tab-id="0_0"><path d="M300 462.85a6 6 0 0 1 6-6h248a6 6 0 0 1 6 6v65a6 6 0 0 1-6 6H306a6 6 0 0 1-6-6z" fill="#fff"/><path d="M300 496.85v-34a6 6 0 0 1 6-6h248a6 6 0 0 1 6 6v34" fill="#dfe3e8"/><path d="M300 462.85a6 6 0 0 1 6-6h248a6 6 0 0 1 6 6v65a6 6 0 0 1-6 6H306a6 6 0 0 1-6-6zM300 496.85h260M360 496.85v37" stroke="#3a414a" stroke-width="2" fill="none"/><use xlink:href="#a" transform="matrix(1,0,0,1,310,456.8461511449199) translate(64.53703703703704 24.444444444444443)"/><use xlink:href="#b" transform="matrix(1,0,0,1,305,499.3461511449199) translate(9.598765432098766 20.444444444444443)"/><use xlink:href="#c" transform="matrix(1,0,0,1,365,499.3461511449199) translate(0 20.444444444444443)"/><path d="M740 462.85a6 6 0 0 1 6-6h248a6 6 0 0 1 6 6v65a6 6 0 0 1-6 6H746a6 6 0 0 1-6-6z" fill="#fff"/><path d="M740 496.85v-34a6 6 0 0 1 6-6h248a6 6 0 0 1 6 6v34" fill="#dfe3e8"/><path d="M740 462.85a6 6 0 0 1 6-6h248a6 6 0 0 1 6 6v65a6 6 0 0 1-6 6H746a6 6 0 0 1-6-6zM740 496.85h260M800 496.85v37" stroke="#3a414a" stroke-width="2" fill="none"/><use xlink:href="#d" transform="matrix(1,0,0,1,750,456.8461511449199) translate(31.913580246913597 24.444444444444443)"/><use xlink:href="#b" transform="matrix(1,0,0,1,745,499.3461511449199) translate(9.598765432098766 20.444444444444443)"/><use xlink:href="#e" transform="matrix(1,0,0,1,805,499.3461511449199) translate(0 20.444444444444443)"/><path d="M566.37 478.32h-3.87v-2.95h3.87zm57.04 0h-20.64v-2.95h20.65zm80.44 0H676.6v-2.95h27.24zm33.66 0h-2.16v-2.95h2.16z" stroke="#3a414a" stroke-width=".05" fill="#3a414a"/><path d="M562.54 478.32H561v-2.95h1.54z" fill="#3a414a"/><path stroke="#3a414a" stroke-width=".05" fill="#3a414a"/><path d="M739 478.32h-1.54v-2.95H739z" fill="#3a414a"/><path stroke="#3a414a" stroke-width=".05" fill="#3a414a"/><use xlink:href="#f" transform="matrix(1,0,0,1,566.3691813897622,466.1794844782532) translate(0 14.222222222222223)"/><use xlink:href="#g" transform="matrix(1,0,0,1,623.4073789458689,466.1794844782532) translate(0 14.222222222222223)"/><use xlink:href="#h" transform="matrix(1,0,0,1,703.8371363791445,466.1794844782533) translate(0 14.222222222222223)"/><path d="M740 225.85a6 6 0 0 1 6-6h248a6 6 0 0 1 6 6v65a6 6 0 0 1-6 6H746a6 6 0 0 1-6-6z" fill="#fff"/><path d="M740 259.85v-34a6 6 0 0 1 6-6h248a6 6 0 0 1 6 6v34" fill="#dfe3e8"/><path d="M740 225.85a6 6 0 0 1 6-6h248a6 6 0 0 1 6 6v65a6 6 0 0 1-6 6H746a6 6 0 0 1-6-6zM740 259.85h260M800 259.85v37" stroke="#3a414a" stroke-width="2" fill="none"/><use xlink:href="#i" transform="matrix(1,0,0,1,750,219.8461593078207) translate(66.57407407407408 24.444444444444443)"/><use xlink:href="#b" transform="matrix(1,0,0,1,745,262.3461593078207) translate(9.598765432098766 20.444444444444443)"/><use xlink:href="#j" transform="matrix(1,0,0,1,805,262.3461593078207) translate(0 20.444444444444443)"/><path d="M871.48 454.35h-2.96v-2h2.96zm0-23.33h-2.96v-43.5h2.96zm0-64.84h-2.96V325.8h2.96zm0-61.7h-2.96v-5.13h2.96z" stroke="#3a414a" stroke-width=".05" fill="#3a414a"/><path d="M871.48 455.85h-2.96v-1.54h2.96z" fill="#3a414a"/><path stroke="#3a414a" stroke-width=".05" fill="#3a414a"/><path d="M871.48 299.4h-2.96v-1.55h2.96z" fill="#3a414a"/><path stroke="#3a414a" stroke-width=".05" fill="#3a414a"/><use xlink:href="#f" transform="matrix(1,0,0,1,851.8024691358024,304.468198483445) translate(0 14.222222222222223)"/><use xlink:href="#k" transform="matrix(1,0,0,1,851.8024691358024,431.0226547721131) translate(0 14.222222222222223)"/><use xlink:href="#l" transform="matrix(1,0,0,1,857.2098765432099,366.1794885597036) translate(0 14.222222222222223)"/><path d="M-120 462.85a6 6 0 0 1 6-6h248a6 6 0 0 1 6 6v65a6 6 0 0 1-6 6h-248a6 6 0 0 1-6-6z" fill="#fff"/><path d="M-120 496.85v-34a6 6 0 0 1 6-6h248a6 6 0 0 1 6 6v34" fill="#dfe3e8"/><path d="M-120 462.85a6 6 0 0 1 6-6h248a6 6 0 0 1 6 6v65a6 6 0 0 1-6 6h-248a6 6 0 0 1-6-6zM-120 496.85h260M-60 496.85v37" stroke="#3a414a" stroke-width="2" fill="none"/><use xlink:href="#m" transform="matrix(1,0,0,1,-110,456.8461511449199) translate(77.5 24.444444444444443)"/><use xlink:href="#b" transform="matrix(1,0,0,1,-115,499.3461511449199) translate(9.598765432098766 20.444444444444443)"/><use xlink:href="#n" transform="matrix(1,0,0,1,-55,499.3461511449199) translate(0 20.444444444444443)"/><path d="M300 225.85a6 6 0 0 1 6-6h248a6 6 0 0 1 6 6v65a6 6 0 0 1-6 6H306a6 6 0 0 1-6-6z" fill="#fff"/><path d="M300 259.85v-34a6 6 0 0 1 6-6h248a6 6 0 0 1 6 6v34" fill="#dfe3e8"/><path d="M300 225.85a6 6 0 0 1 6-6h248a6 6 0 0 1 6 6v65a6 6 0 0 1-6 6H306a6 6 0 0 1-6-6zM300 259.85h260M360 259.85v37" stroke="#3a414a" stroke-width="2" fill="none"/><use xlink:href="#o" transform="matrix(1,0,0,1,310,219.8461593078207) translate(72.62345679012346 24.444444444444443)"/><use xlink:href="#b" transform="matrix(1,0,0,1,305,262.3461593078207) translate(9.598765432098766 20.444444444444443)"/><use xlink:href="#p" transform="matrix(1,0,0,1,365,262.3461593078207) translate(0 20.444444444444443)"/><path d="M1160 386.85a6 6 0 0 1 6-6h428a6 6 0 0 1 6 6v65a6 6 0 0 1-6 6h-428a6 6 0 0 1-6-6z" fill="#fff"/><path d="M1160 420.85v-34a6 6 0 0 1 6-6h428a6 6 0 0 1 6 6v34" fill="#dfe3e8"/><path d="M1160 386.85a6 6 0 0 1 6-6h428a6 6 0 0 1 6 6v65a6 6 0 0 1-6 6h-428a6 6 0 0 1-6-6zM1160 420.85h440M1220 420.85v37" stroke="#3a414a" stroke-width="2" fill="none"/><use xlink:href="#q" transform="matrix(1,0,0,1,1170,380.8461011449199) translate(70.12345679012347 24.444444444444443)"/><use xlink:href="#b" transform="matrix(1,0,0,1,1165,423.3461011449199) translate(9.598765432098766 20.444444444444443)"/><use xlink:href="#r" transform="matrix(1,0,0,1,1225,423.3461011449199) translate(0 20.444444444444443)"/><path d="M1160 540.85a6 6 0 0 1 6-6h428a6 6 0 0 1 6 6v65a6 6 0 0 1-6 6h-428a6 6 0 0 1-6-6z" fill="#fff"/><path d="M1160 574.85v-34a6 6 0 0 1 6-6h428a6 6 0 0 1 6 6v34" fill="#dfe3e8"/><path d="M1160 540.85a6 6 0 0 1 6-6h428a6 6 0 0 1 6 6v65a6 6 0 0 1-6 6h-428a6 6 0 0 1-6-6zM1160 574.85h440M1220 574.85v37" stroke="#3a414a" stroke-width="2" fill="none"/><use xlink:href="#s" transform="matrix(1,0,0,1,1170,534.84610114492) translate(10.401234567901241 24.444444444444443)"/><use xlink:href="#b" transform="matrix(1,0,0,1,1165,577.34610114492) translate(9.598765432098766 20.444444444444443)"/><use xlink:href="#r" transform="matrix(1,0,0,1,1225,577.34610114492) translate(0 20.444444444444443)"/><path d="M1003.08 478.32h-.58v-2.95h.58zm78.4-7.42l-.1 1.12-.27 1.14-.44 1.08-.6 1-.77.9-.9.76-1 .6-1.1.46-1.13.27-1.1.1h-39.5v-2.96h39.37l.77-.06.7-.16.65-.27.6-.37.55-.46.46-.54.37-.6.27-.66.16-.7.07-.75v-2.04h2.94zm59.28-30.08h-54.7l-.77.06-.7.17-.65.27-.6.37-.55.45-.46.54-.37.6-.27.65-.16.7-.07.75v2.03h-2.94v-2.14l.08-1.12.3-1.14.44-1.1.6-1 .77-.88.9-.76 1-.62 1.1-.45 1.13-.27 1.1-.1h54.83zm16.74 0h-6.87v-2.95h6.87z" stroke="#3a414a" stroke-width=".05" fill="#3a414a"/><path d="M1002.54 478.32H1001v-2.95h1.54z" fill="#3a414a"/><path stroke="#3a414a" stroke-width=".05" fill="#3a414a"/><path d="M1159 440.82h-1.54v-2.95h1.54z" fill="#3a414a"/><path stroke="#3a414a" stroke-width=".05" fill="#3a414a"/><use xlink:href="#t" transform="matrix(1,0,0,1,1140.7552591877177,428.6794344782532) translate(0 14.222222222222223)"/><use xlink:href="#h" transform="matrix(1,0,0,1,1003.0750732341423,466.1794844782532) translate(0 14.222222222222223)"/><use xlink:href="#l" transform="matrix(1,0,0,1,1067.209877697056,447.4294594782532) translate(0 14.222222222222223)"/><path d="M1081.47 548.8l.07.75.16.7.27.65.37.6.46.54.54.46.6.37.66.27.7.17.76.07h31.6v2.95h-31.72l-1.1-.1-1.15-.26-1.1-.45-1-.6-.9-.76-.75-.9-.6-1-.46-1.08-.3-1.14-.07-1.12v-3.14h2.94zm76.03 4.57v2.95h-3.44v-2.95zm-82.33-39.4l1.14.26 1.1.45 1 .62.9.76.75.9.6 1 .46 1.07.3 1.15.07 1.1v3.15h-2.94v-3.03l-.07-.76-.16-.7-.27-.65-.37-.6-.46-.55-.54-.46-.6-.38-.66-.27-.7-.17-.76-.06h-39.92v-2.95h40.04zm-72.67 2.85v-2.95h.02v2.95z" stroke="#3a414a" stroke-width=".05" fill="#3a414a"/><path d="M1002.52 516.82H1001v-2.95h1.52z" fill="#3a414a"/><path stroke="#3a414a" stroke-width=".05" fill="#3a414a"/><path d="M1159 556.32h-1.54v-2.95h1.54z" fill="#3a414a"/><path stroke="#3a414a" stroke-width=".05" fill="#3a414a"/><use xlink:href="#f" transform="matrix(1,0,0,1,1117.660050943525,544.1794344782534) translate(0 14.222222222222223)"/><use xlink:href="#h" transform="matrix(1,0,0,1,1002.517416392837,504.6794844782532) translate(0 14.222222222222223)"/><use xlink:href="#l" transform="matrix(1,0,0,1,1067.2098777022966,524.4294594730128) translate(0 14.222222222222223)"/><path d="M568.54 241.32h-6.04v-2.95h6.04zm69.26 0h-32.87v-2.95h32.87zm87.76 0h-45.4v-2.95h45.4zm11.94 0h-2.06v-2.95h2.06z" stroke="#3a414a" stroke-width=".05" fill="#3a414a"/><path d="M739 241.32h-1.54v-2.95H739z" fill="#3a414a"/><path stroke="#3a414a" stroke-width=".05" fill="#3a414a"/><path d="M562.54 241.32H561v-2.95h1.54z" fill="#3a414a"/><path stroke="#3a414a" stroke-width=".05" fill="#3a414a"/><use xlink:href="#u" transform="matrix(1,0,0,1,637.8039479914333,229.17949264115404) translate(0 14.222222222222223)"/><use xlink:href="#k" transform="matrix(1,0,0,1,568.5374998850479,229.179492641154) translate(0 14.222222222222223)"/><use xlink:href="#t" transform="matrix(1,0,0,1,725.5642504969283,229.17949264115404) translate(0 14.222222222222223)"/><path d="M11.47 454.35H8.52v-2.74h2.96zM33.7 241.32H16.07l-.77.06-.7.17-.65.27-.6.37-.55.45-.46.54-.37.6-.27.65-.16.7-.06.75v184.38H8.52v-184.5l.1-1.1.27-1.15.44-1.08.6-1 .77-.9.9-.76 1-.62 1.1-.45 1.13-.27 1.1-.1h17.78zm222.7 0H59.3v-2.95h197.1zm41.1 0h-4.7v-2.95h4.7z" stroke="#3a414a" stroke-width=".05" fill="#3a414a"/><path d="M299 241.32h-1.54v-2.95H299z" fill="#3a414a"/><path stroke="#3a414a" stroke-width=".05" fill="#3a414a"/><path d="M11.47 455.85H8.52v-1.54h2.96z" fill="#3a414a"/><path stroke="#3a414a" stroke-width=".05" fill="#3a414a"/><use xlink:href="#l" transform="matrix(1,0,0,1,33.70986639389051,229.17949264115404) translate(0 14.222222222222223)"/><use xlink:href="#t" transform="matrix(1,0,0,1,5.061728395061754,430.27762991951414) translate(0 14.222222222222223)"/><use xlink:href="#f" transform="matrix(1,0,0,1,256.4023871779906,229.17949264115404) translate(0 14.222222222222223)"/><path d="M147.86 478.32h-5.36v-2.95h5.36zm37.5 0h-27.62v-2.95h27.62zm74.04 0h-20.86v-2.95h20.86zm38.1 0h-1.7v-2.95h1.7z" stroke="#3a414a" stroke-width=".05" fill="#3a414a"/><path d="M142.54 478.32H141v-2.95h1.54z" fill="#3a414a"/><path stroke="#3a414a" stroke-width=".05" fill="#3a414a"/><path d="M299 478.32h-1.54v-2.95H299z" fill="#3a414a"/><path stroke="#3a414a" stroke-width=".05" fill="#3a414a"/><use xlink:href="#g" transform="matrix(1,0,0,1,185.35865647443848,466.1794844782532) translate(0 14.222222222222223)"/><use xlink:href="#f" transform="matrix(1,0,0,1,259.40246935473266,466.1794844782532) translate(0 14.222222222222223)"/><use xlink:href="#t" transform="matrix(1,0,0,1,147.86172861399197,466.1794844782532) translate(0 14.222222222222223)"/><path d="M-271.82 704.85a6 6 0 0 1 6-6h388a6 6 0 0 1 6 6v65a6 6 0 0 1-6 6h-388a6 6 0 0 1-6-6z" fill="#fff"/><path d="M-271.82 738.85v-34a6 6 0 0 1 6-6h388a6 6 0 0 1 6 6v34" fill="#dfe3e8"/><path d="M-271.82 704.85a6 6 0 0 1 6-6h388a6 6 0 0 1 6 6v65a6 6 0 0 1-6 6h-388a6 6 0 0 1-6-6zM-271.82 738.85h400M-211.82 738.85v37" stroke="#3a414a" stroke-width="2" fill="none"/><use xlink:href="#v" transform="matrix(1,0,0,1,-261.81818194064596,698.8462134433062) translate(35.987654320987644 24.444444444444443)"/><use xlink:href="#b" transform="matrix(1,0,0,1,-266.81818194064596,741.3462134433062) translate(9.598765432098766 20.444444444444443)"/><use xlink:href="#w" transform="matrix(1,0,0,1,-206.81818194064596,741.3462134433062) translate(0 20.444444444444443)"/><path d="M11.47 696.35H8.52v-5.76h2.96zm0-27.1H8.52V627h2.96zm0-63.57H8.52v-42.1h2.96zm0-63.42H8.52v-5.9h2.96z" stroke="#3a414a" stroke-width=".05" fill="#3a414a"/><path d="M11.47 697.85H8.52v-1.54h2.96z" fill="#3a414a"/><path stroke="#3a414a" stroke-width=".05" fill="#3a414a"/><path d="M11.47 536.4H8.52v-1.55h2.96z" fill="#3a414a"/><path stroke="#3a414a" stroke-width=".05" fill="#3a414a"/><use xlink:href="#f" transform="matrix(1,0,0,1,-8.197530864197532,669.2521161044277) translate(0 14.222222222222223)"/><use xlink:href="#t" transform="matrix(1,0,0,1,5.061728395061728,542.2585173443033) translate(0 14.222222222222223)"/><use xlink:href="#l" transform="matrix(1,0,0,1,-2.790123456790125,605.6795050838663) translate(0 14.222222222222223)"/><path d="M190 704.85a6 6 0 0 1 6-6h208a6 6 0 0 1 6 6v65a6 6 0 0 1-6 6H196a6 6 0 0 1-6-6z" fill="#fff"/><path d="M190 738.85v-34a6 6 0 0 1 6-6h208a6 6 0 0 1 6 6v34" fill="#dfe3e8"/><path d="M190 704.85a6 6 0 0 1 6-6h208a6 6 0 0 1 6 6v65a6 6 0 0 1-6 6H196a6 6 0 0 1-6-6zM190 738.85h220M250 738.85v37" stroke="#3a414a" stroke-width="2" fill="none"/><use xlink:href="#x" transform="matrix(1,0,0,1,200,698.8462134433062) translate(44.13580246913581 24.444444444444443)"/><use xlink:href="#b" transform="matrix(1,0,0,1,195,741.3462134433062) translate(9.598765432098766 20.444444444444443)"/><use xlink:href="#y" transform="matrix(1,0,0,1,255,741.3462134433062) translate(0 20.444444444444443)"/><path d="M301.48 696.35h-2.96v-2.83h2.96zm34.98-79.03h-30.4l-.77.06-.7.17-.65.27-.6.37-.55.45-.46.54-.37.6-.27.65-.16.7-.06.75v50.28h-2.96v-50.4l.1-1.1.27-1.14.44-1.1.6-1 .77-.88.9-.76 1-.62 1.1-.45 1.13-.27 1.1-.1h30.53zm64.52-7.42l-.1 1.12-.27 1.14-.44 1.08-.6 1-.77.9-.9.76-1 .6-1.1.46-1.13.27-1.1.1h-31.53v-2.96h31.4l.77-.06.7-.15.65-.28.6-.37.55-.46.46-.54.37-.6.27-.66.16-.7.06-.75v-47.64h2.96zm0-69.07h-2.96v-4.48h2.96z" stroke="#3a414a" stroke-width=".05" fill="#3a414a"/><path d="M400.98 536.4h-2.96v-1.55h2.96z" fill="#3a414a"/><path stroke="#3a414a" stroke-width=".05" fill="#3a414a"/><path d="M301.48 697.85h-2.96v-1.54h2.96z" fill="#3a414a"/><path stroke="#3a414a" stroke-width=".05" fill="#3a414a"/><use xlink:href="#t" transform="matrix(1,0,0,1,295.0617283950617,672.1839141080219) translate(0 14.222222222222223)"/><use xlink:href="#k" transform="matrix(1,0,0,1,381.30246772449703,540.8290995215624) translate(0 14.222222222222223)"/><use xlink:href="#l" transform="matrix(1,0,0,1,336.4599077932019,605.179553732285) translate(0 14.222222222222223)"/><path d="M450 704.85a6 6 0 0 1 6-6h208a6 6 0 0 1 6 6v65a6 6 0 0 1-6 6H456a6 6 0 0 1-6-6z" fill="#fff"/><path d="M450 738.85v-34a6 6 0 0 1 6-6h208a6 6 0 0 1 6 6v34" fill="#dfe3e8"/><path d="M450 704.85a6 6 0 0 1 6-6h208a6 6 0 0 1 6 6v65a6 6 0 0 1-6 6H456a6 6 0 0 1-6-6zM450 738.85h220M510 738.85v37" stroke="#3a414a" stroke-width="2" fill="none"/><use xlink:href="#z" transform="matrix(1,0,0,1,460,698.8462134433062) translate(55.03086419753087 24.444444444444443)"/><use xlink:href="#b" transform="matrix(1,0,0,1,455,741.3462134433062) translate(9.598765432098766 20.444444444444443)"/><use xlink:href="#A" transform="matrix(1,0,0,1,515,741.3462134433062) translate(0 20.444444444444443)"/><path d="M561.48 696.35h-2.96v-6.9h2.96zm-7.42-81.48l1.1.1 1.15.26 1.1.45 1 .62.9.76.75.9.6 1 .46 1.07.3 1.15.08 1.1v45.83h-2.96v-45.7l-.05-.76-.17-.7-.27-.65-.37-.6-.46-.55-.54-.46-.6-.38-.66-.27-.7-.17-.76-.06h-9.7v-2.95zm-92.02-3.82l.16.7.27.65.37.6.46.54.54.46.6.37.66.27.7.17.76.07h9.7v2.95h-9.82l-1.1-.1-1.15-.26-1.1-.45-1-.6-.9-.76-.75-.9-.6-1-.46-1.08-.3-1.14-.08-1.12v-48h2.96v47.9zm-.06-70h-2.96v-4.7h2.96z" stroke="#3a414a" stroke-width=".05" fill="#3a414a"/><path d="M461.98 536.4h-2.96v-1.55h2.96z" fill="#3a414a"/><path stroke="#3a414a" stroke-width=".05" fill="#3a414a"/><path d="M561.48 697.85h-2.96v-1.54h2.96z" fill="#3a414a"/><path stroke="#3a414a" stroke-width=".05" fill="#3a414a"/><use xlink:href="#k" transform="matrix(1,0,0,1,541.8024691358024,668.1108729434312) translate(0 14.222222222222223)"/><use xlink:href="#k" transform="matrix(1,0,0,1,442.3024675228741,541.0527063193123) translate(0 14.222222222222223)"/><use xlink:href="#B" transform="matrix(1,0,0,1,476.26851771205435,608.3461761449198) translate(0 10.666666666666668)"/><use xlink:href="#C" transform="matrix(1,0,0,1,476.26851771205435,608.3461761449198) translate(22.888888888888893 10.666666666666668)"/><path d="M431.48 454.35h-2.96v-2.15h2.96zm0-23.48h-2.96V387.5h2.96zm0-64.7h-2.96v-44.55h2.96zm0-65.88h-2.96v-.95h2.96z" stroke="#3a414a" stroke-width=".05" fill="#3a414a"/><path d="M431.48 455.85h-2.96v-1.54h2.96z" fill="#3a414a"/><path stroke="#3a414a" stroke-width=".05" fill="#3a414a"/><path d="M431.48 299.4h-2.96v-1.55h2.96z" fill="#3a414a"/><path stroke="#3a414a" stroke-width=".05" fill="#3a414a"/><use xlink:href="#D" transform="matrix(1,0,0,1,396.0246913580247,366.1794885597036) translate(0 14.222222222222223)"/><use xlink:href="#t" transform="matrix(1,0,0,1,425.0617283950617,430.8705374787997) translate(0 14.222222222222223)"/><use xlink:href="#k" transform="matrix(1,0,0,1,411.8024691358025,300.2915107969207) translate(0 14.222222222222223)"/><defs><path d="M137 0h-34L2-248h35l83 218 83-218h36" id="E"/><path d="M30 0v-248h187v28H63v79h144v27H63v87h162V0H30" id="F"/><path d="M197 0v-115H63V0H30v-248h33v105h134v-105h34V0h-34" id="G"/><path d="M33 0v-248h34V0H33" id="H"/><path d="M212-179c-10-28-35-45-73-45-59 0-87 40-87 99 0 60 29 101 89 101 43 0 62-24 78-52l27 14C228-24 195 4 139 4 59 4 22-46 18-125c-6-104 99-153 187-111 19 9 31 26 39 46" id="I"/><path d="M232-93c-1 65-40 97-104 97C67 4 28-28 28-90v-158h33c8 89-33 224 67 224 102 0 64-133 71-224h33v155" id="J"/><path d="M30 0v-248h33v221h125V0H30" id="K"/><g id="a"><use transform="matrix(0.06172839506172839,0,0,0.06172839506172839,0,0)" xlink:href="#E"/><use transform="matrix(0.06172839506172839,0,0,0.06172839506172839,14.814814814814813,0)" xlink:href="#F"/><use transform="matrix(0.06172839506172839,0,0,0.06172839506172839,29.629629629629626,0)" xlink:href="#G"/><use transform="matrix(0.06172839506172839,0,0,0.06172839506172839,45.61728395061728,0)" xlink:href="#H"/><use transform="matrix(0.06172839506172839,0,0,0.06172839506172839,51.79012345679012,0)" xlink:href="#I"/><use transform="matrix(0.06172839506172839,0,0,0.06172839506172839,67.77777777777777,0)" xlink:href="#J"/><use transform="matrix(0.06172839506172839,0,0,0.06172839506172839,83.76543209876543,0)" xlink:href="#K"/><use transform="matrix(0.06172839506172839,0,0,0.06172839506172839,96.11111111111111,0)" xlink:href="#F"/></g><path d="M24-248c93 1 206-16 204 79-1 75-69 88-152 82V0H24v-248zm52 121c47 0 100 7 100-41 0-47-54-39-100-39v80" id="L"/><path d="M195 0l-88-114-31 24V0H24v-248h52v113l112-113h60L142-143 257 0h-62" id="M"/><g id="b"><use transform="matrix(0.06172839506172839,0,0,0.06172839506172839,0,0)" xlink:href="#L"/><use transform="matrix(0.06172839506172839,0,0,0.06172839506172839,14.814814814814813,0)" xlink:href="#M"/></g><path d="M24 0v-248h52V0H24" id="N"/><path d="M24-248c120-7 223 5 221 122C244-46 201 0 124 0H24v-248zM76-40c74 7 117-18 117-86 0-67-45-88-117-82v168" id="O"/><path d="M-4 44V30h207v14H-4" id="P"/><path d="M147 0H94L2-248h55l64 206c17-72 42-137 63-206h54" id="Q"/><path d="M24 0v-248h195v40H76v63h132v40H76v65h150V0H24" id="R"/><path d="M186 0v-106H76V0H24v-248h52v99h110v-99h50V0h-50" id="S"/><path d="M67-125c0 53 21 87 73 88 37 1 54-22 65-47l45 17C233-25 199 4 140 4 58 4 20-42 15-125 8-235 124-281 211-232c18 10 29 29 36 50l-46 12c-8-25-30-41-62-41-52 0-71 34-72 86" id="T"/><path d="M238-95c0 69-44 99-111 99C63 4 22-25 22-93v-155h51v151c-1 38 19 59 55 60 90 1 49-130 58-211h52v153" id="U"/><path d="M24 0v-248h52v208h133V0H24" id="V"/><g id="c"><use transform="matrix(0.06172839506172839,0,0,0.06172839506172839,0,0)" xlink:href="#N"/><use transform="matrix(0.06172839506172839,0,0,0.06172839506172839,6.172839506172839,0)" xlink:href="#O"/><use transform="matrix(0.06172839506172839,0,0,0.06172839506172839,22.160493827160494,0)" xlink:href="#P"/><use transform="matrix(0.06172839506172839,0,0,0.06172839506172839,34.50617283950617,0)" xlink:href="#Q"/><use transform="matrix(0.06172839506172839,0,0,0.06172839506172839,49.32098765432099,0)" xlink:href="#R"/><use transform="matrix(0.06172839506172839,0,0,0.06172839506172839,64.1358024691358,0)" xlink:href="#S"/><use transform="matrix(0.06172839506172839,0,0,0.06172839506172839,80.12345679012346,0)" xlink:href="#N"/><use transform="matrix(0.06172839506172839,0,0,0.06172839506172839,86.29629629629629,0)" xlink:href="#T"/><use transform="matrix(0.06172839506172839,0,0,0.06172839506172839,102.28395061728395,0)" xlink:href="#U"/><use transform="matrix(0.06172839506172839,0,0,0.06172839506172839,118.27160493827161,0)" xlink:href="#V"/></g><path d="M185-189c-5-48-123-54-124 2 14 75 158 14 163 119 3 78-121 87-175 55-17-10-28-26-33-46l33-7c5 56 141 63 141-1 0-78-155-14-162-118-5-82 145-84 179-34 5 7 8 16 11 25" id="W"/><path d="M140-251c81 0 123 46 123 126C263-46 219 4 140 4 59 4 17-45 17-125s42-126 123-126zm0 227c63 0 89-41 89-101s-29-99-89-99c-61 0-89 39-89 99S79-25 140-24" id="X"/><path d="M266 0h-40l-56-210L115 0H75L2-248h35L96-30l15-64 43-154h32l59 218 59-218h35" id="Y"/><path d="M233-177c-1 41-23 64-60 70L243 0h-38l-65-103H63V0H30v-248c88 3 205-21 203 71zM63-129c60-2 137 13 137-47 0-61-80-42-137-45v92" id="Z"/><path d="M240 0l2-218c-23 76-54 145-80 218h-23L58-218 59 0H30v-248h44l77 211c21-75 51-140 76-211h43V0h-30" id="aa"/><g id="d"><use transform="matrix(0.06172839506172839,0,0,0.06172839506172839,0,0)" xlink:href="#W"/><use transform="matrix(0.06172839506172839,0,0,0.06172839506172839,14.814814814814813,0)" xlink:href="#G"/><use transform="matrix(0.06172839506172839,0,0,0.06172839506172839,30.80246913580247,0)" xlink:href="#X"/><use transform="matrix(0.06172839506172839,0,0,0.06172839506172839,48.08641975308642,0)" xlink:href="#Y"/><use transform="matrix(0.06172839506172839,0,0,0.06172839506172839,69.01234567901234,0)" xlink:href="#Z"/><use transform="matrix(0.06172839506172839,0,0,0.06172839506172839,85,0)" xlink:href="#X"/><use transform="matrix(0.06172839506172839,0,0,0.06172839506172839,102.28395061728395,0)" xlink:href="#X"/><use transform="matrix(0.06172839506172839,0,0,0.06172839506172839,119.5679012345679,0)" xlink:href="#aa"/><use transform="matrix(0.06172839506172839,0,0,0.06172839506172839,138.02469135802468,0)" xlink:href="#J"/><use transform="matrix(0.06172839506172839,0,0,0.06172839506172839,154.01234567901233,0)" xlink:href="#Z"/><use transform="matrix(0.06172839506172839,0,0,0.06172839506172839,169.99999999999997,0)" xlink:href="#H"/></g><path d="M169-182c-1-43-94-46-97-3 18 66 151 10 154 114 3 95-165 93-204 36-6-8-10-19-12-30l50-8c3 46 112 56 116 5-17-69-150-10-154-114-4-87 153-88 188-35 5 8 8 18 10 28" id="ab"/><path d="M140-251c80 0 125 45 125 126S219 4 139 4C58 4 15-44 15-125s44-126 125-126zm-1 214c52 0 73-35 73-88 0-50-21-86-72-86-52 0-73 35-73 86s22 88 72 88" id="ac"/><path d="M275 0h-61l-44-196L126 0H64L0-248h53L97-49l45-199h58l43 199 44-199h52" id="ad"/><path d="M240-174c0 40-23 61-54 70L253 0h-59l-57-94H76V0H24v-248c93 4 217-23 216 74zM76-134c48-2 112 12 112-38 0-48-66-32-112-35v73" id="ae"/><path d="M230 0l2-204L168 0h-37L68-204 70 0H24v-248h70l56 185 57-185h69V0h-46" id="af"/><g id="e"><use transform="matrix(0.06172839506172839,0,0,0.06172839506172839,0,0)" xlink:href="#N"/><use transform="matrix(0.06172839506172839,0,0,0.06172839506172839,6.172839506172839,0)" xlink:href="#O"/><use transform="matrix(0.06172839506172839,0,0,0.06172839506172839,22.160493827160494,0)" xlink:href="#P"/><use transform="matrix(0.06172839506172839,0,0,0.06172839506172839,34.50617283950617,0)" xlink:href="#ab"/><use transform="matrix(0.06172839506172839,0,0,0.06172839506172839,49.32098765432099,0)" xlink:href="#S"/><use transform="matrix(0.06172839506172839,0,0,0.06172839506172839,65.30864197530865,0)" xlink:href="#ac"/><use transform="matrix(0.06172839506172839,0,0,0.06172839506172839,82.5925925925926,0)" xlink:href="#ad"/><use transform="matrix(0.06172839506172839,0,0,0.06172839506172839,103.51851851851852,0)" xlink:href="#ae"/><use transform="matrix(0.06172839506172839,0,0,0.06172839506172839,119.50617283950618,0)" xlink:href="#ac"/><use transform="matrix(0.06172839506172839,0,0,0.06172839506172839,136.79012345679013,0)" xlink:href="#ac"/><use transform="matrix(0.06172839506172839,0,0,0.06172839506172839,154.07407407407408,0)" xlink:href="#af"/></g><path fill="#333" d="M230 0l2-204L168 0h-37L68-204 70 0H24v-248h70l56 185 57-185h69V0h-46" id="ag"/><path fill="#333" d="M67-93c0 74 22 123 53 168H70C40 30 18-18 18-93s22-123 52-168h50c-32 44-53 94-53 168" id="ah"/><path fill="#333" d="M23 0v-37h61v-169l-59 37v-38l62-41h46v211h57V0H23" id="ai"/><path fill="#333" d="M102-93c0 74-22 123-52 168H0C30 29 54-18 53-93c0-74-22-123-53-168h50c30 45 52 94 52 168" id="aj"/><g id="f"><use transform="matrix(0.04938271604938272,0,0,0.04938271604938272,0,0)" xlink:href="#ag"/><use transform="matrix(0.04938271604938272,0,0,0.04938271604938272,14.765432098765434,0)" xlink:href="#ah"/><use transform="matrix(0.04938271604938272,0,0,0.04938271604938272,20.641975308641978,0)" xlink:href="#ai"/><use transform="matrix(0.04938271604938272,0,0,0.04938271604938272,30.518518518518523,0)" xlink:href="#aj"/></g><path fill="#333" d="M24-248c120-7 223 5 221 122C244-46 201 0 124 0H24v-248zM76-40c74 7 117-18 117-86 0-67-45-88-117-82v168" id="ak"/><path fill="#333" d="M24 0v-248h195v40H76v63h132v40H76v65h150V0H24" id="al"/><path fill="#333" d="M136-208V0H84v-208H4v-40h212v40h-80" id="am"/><path fill="#333" d="M24 0v-248h52V0H24" id="an"/><path fill="#333" d="M175 0L67-191c6 58 2 128 3 191H24v-248h59L193-55c-6-58-2-129-3-193h46V0h-61" id="ao"/><g id="g"><use transform="matrix(0.04938271604938272,0,0,0.04938271604938272,0,0)" xlink:href="#ak"/><use transform="matrix(0.04938271604938272,0,0,0.04938271604938272,12.790123456790125,0)" xlink:href="#al"/><use transform="matrix(0.04938271604938272,0,0,0.04938271604938272,24.641975308641978,0)" xlink:href="#am"/><use transform="matrix(0.04938271604938272,0,0,0.04938271604938272,35.45679012345679,0)" xlink:href="#an"/><use transform="matrix(0.04938271604938272,0,0,0.04938271604938272,40.39506172839506,0)" xlink:href="#ao"/></g><path fill="#333" d="M101-251c68 0 84 54 84 127C185-50 166 4 99 4S15-52 14-124c-1-75 17-127 87-127zm-1 216c37-5 36-46 36-89s4-89-36-89c-39 0-36 45-36 89 0 43-3 85 36 89" id="ap"/><g id="h"><use transform="matrix(0.04938271604938272,0,0,0.04938271604938272,0,0)" xlink:href="#ai"/><use transform="matrix(0.04938271604938272,0,0,0.04938271604938272,9.876543209876544,0)" xlink:href="#ah"/><use transform="matrix(0.04938271604938272,0,0,0.04938271604938272,15.753086419753087,0)" xlink:href="#ap"/><use transform="matrix(0.04938271604938272,0,0,0.04938271604938272,25.629629629629633,0)" xlink:href="#aj"/></g><path d="M205 0l-28-72H64L36 0H1l101-248h38L239 0h-34zm-38-99l-47-123c-12 45-31 82-46 123h93" id="aq"/><path d="M190 0L58-211 59 0H30v-248h39L202-35l-2-213h31V0h-41" id="ar"/><path d="M143 4C61 4 22-44 18-125c-5-107 100-154 193-111 17 8 29 25 37 43l-32 9c-13-25-37-40-76-40-61 0-88 39-88 99 0 61 29 100 91 101 35 0 62-11 79-27v-45h-74v-28h105v86C228-13 192 4 143 4" id="as"/><path d="M153-248C145-148 188 4 80 4 36 3 13-21 6-62l32-5c4 25 16 42 43 43 27 0 39-20 39-49v-147H72v-28h81" id="at"/><path d="M127-220V0H93v-220H8v-28h204v28h-85" id="au"/><g id="i"><use transform="matrix(0.06172839506172839,0,0,0.06172839506172839,0,0)" xlink:href="#aq"/><use transform="matrix(0.06172839506172839,0,0,0.06172839506172839,14.814814814814813,0)" xlink:href="#ar"/><use transform="matrix(0.06172839506172839,0,0,0.06172839506172839,30.80246913580247,0)" xlink:href="#as"/><use transform="matrix(0.06172839506172839,0,0,0.06172839506172839,48.08641975308642,0)" xlink:href="#aq"/><use transform="matrix(0.06172839506172839,0,0,0.06172839506172839,62.90123456790123,0)" xlink:href="#at"/><use transform="matrix(0.06172839506172839,0,0,0.06172839506172839,74.01234567901234,0)" xlink:href="#aq"/><use transform="matrix(0.06172839506172839,0,0,0.06172839506172839,87.16049382716048,0)" xlink:href="#au"/><use transform="matrix(0.06172839506172839,0,0,0.06172839506172839,100.679012345679,0)" xlink:href="#H"/></g><path d="M199 0l-22-63H83L61 0H9l90-248h61L250 0h-51zm-33-102l-36-108c-10 38-24 72-36 108h72" id="av"/><path d="M175 0L67-191c6 58 2 128 3 191H24v-248h59L193-55c-6-58-2-129-3-193h46V0h-61" id="aw"/><path d="M67-125c0 54 23 88 75 88 28 0 53-7 68-21v-34h-60v-39h108v91C232-14 192 4 140 4 58 4 20-42 15-125 8-236 126-280 215-234c19 10 29 26 37 47l-47 15c-11-23-29-39-63-39-53 1-75 33-75 86" id="ax"/><path d="M176-78C186 10 51 31 16-35c-5-9-9-19-11-32l52-8c4 21 12 37 35 38 23 0 32-16 32-40v-130H75v-41h101v170" id="ay"/><path d="M136-208V0H84v-208H4v-40h212v40h-80" id="az"/><g id="j"><use transform="matrix(0.06172839506172839,0,0,0.06172839506172839,0,0)" xlink:href="#N"/><use transform="matrix(0.06172839506172839,0,0,0.06172839506172839,6.172839506172839,0)" xlink:href="#O"/><use transform="matrix(0.06172839506172839,0,0,0.06172839506172839,22.160493827160494,0)" xlink:href="#P"/><use transform="matrix(0.06172839506172839,0,0,0.06172839506172839,34.50617283950617,0)" xlink:href="#av"/><use transform="matrix(0.06172839506172839,0,0,0.06172839506172839,50.49382716049382,0)" xlink:href="#aw"/><use transform="matrix(0.06172839506172839,0,0,0.06172839506172839,66.48148148148148,0)" xlink:href="#ax"/><use transform="matrix(0.06172839506172839,0,0,0.06172839506172839,83.76543209876543,0)" xlink:href="#av"/><use transform="matrix(0.06172839506172839,0,0,0.06172839506172839,99.75308641975309,0)" xlink:href="#ay"/><use transform="matrix(0.06172839506172839,0,0,0.06172839506172839,112.09876543209877,0)" xlink:href="#av"/><use transform="matrix(0.06172839506172839,0,0,0.06172839506172839,126.41975308641977,0)" xlink:href="#az"/></g><g id="k"><use transform="matrix(0.04938271604938272,0,0,0.04938271604938272,0,0)" xlink:href="#ag"/><use transform="matrix(0.04938271604938272,0,0,0.04938271604938272,14.765432098765434,0)" xlink:href="#ah"/><use transform="matrix(0.04938271604938272,0,0,0.04938271604938272,20.641975308641978,0)" xlink:href="#ap"/><use transform="matrix(0.04938271604938272,0,0,0.04938271604938272,30.518518518518523,0)" xlink:href="#aj"/></g><path fill="#333" d="M199 0l-22-63H83L61 0H9l90-248h61L250 0h-51zm-33-102l-36-108c-10 38-24 72-36 108h72" id="aA"/><path fill="#333" d="M238-95c0 69-44 99-111 99C63 4 22-25 22-93v-155h51v151c-1 38 19 59 55 60 90 1 49-130 58-211h52v153" id="aB"/><g id="l"><use transform="matrix(0.04938271604938272,0,0,0.04938271604938272,0,0)" xlink:href="#aA"/><use transform="matrix(0.04938271604938272,0,0,0.04938271604938272,12.790123456790125,0)" xlink:href="#aB"/></g><g id="m"><use transform="matrix(0.06172839506172839,0,0,0.06172839506172839,0,0)" xlink:href="#I"/><use transform="matrix(0.06172839506172839,0,0,0.06172839506172839,15.987654320987653,0)" xlink:href="#K"/><use transform="matrix(0.06172839506172839,0,0,0.06172839506172839,28.333333333333332,0)" xlink:href="#H"/><use transform="matrix(0.06172839506172839,0,0,0.06172839506172839,34.50617283950617,0)" xlink:href="#F"/><use transform="matrix(0.06172839506172839,0,0,0.06172839506172839,49.32098765432099,0)" xlink:href="#ar"/><use transform="matrix(0.06172839506172839,0,0,0.06172839506172839,65.30864197530865,0)" xlink:href="#au"/><use transform="matrix(0.06172839506172839,0,0,0.06172839506172839,78.82716049382717,0)" xlink:href="#H"/></g><g id="n"><use transform="matrix(0.06172839506172839,0,0,0.06172839506172839,0,0)" xlink:href="#N"/><use transform="matrix(0.06172839506172839,0,0,0.06172839506172839,6.172839506172839,0)" xlink:href="#O"/><use transform="matrix(0.06172839506172839,0,0,0.06172839506172839,22.160493827160494,0)" xlink:href="#P"/><use transform="matrix(0.06172839506172839,0,0,0.06172839506172839,34.50617283950617,0)" xlink:href="#T"/><use transform="matrix(0.06172839506172839,0,0,0.06172839506172839,50.49382716049382,0)" xlink:href="#V"/><use transform="matrix(0.06172839506172839,0,0,0.06172839506172839,64.01234567901234,0)" xlink:href="#N"/><use transform="matrix(0.06172839506172839,0,0,0.06172839506172839,70.18518518518518,0)" xlink:href="#R"/><use transform="matrix(0.06172839506172839,0,0,0.06172839506172839,84.99999999999999,0)" xlink:href="#aw"/><use transform="matrix(0.06172839506172839,0,0,0.06172839506172839,100.98765432098764,0)" xlink:href="#az"/></g><path d="M63-220v92h138v28H63V0H30v-248h175v28H63" id="aC"/><g id="o"><use transform="matrix(0.06172839506172839,0,0,0.06172839506172839,0,0)" xlink:href="#aC"/><use transform="matrix(0.06172839506172839,0,0,0.06172839506172839,12.28395061728395,0)" xlink:href="#aq"/><use transform="matrix(0.06172839506172839,0,0,0.06172839506172839,27.098765432098762,0)" xlink:href="#I"/><use transform="matrix(0.06172839506172839,0,0,0.06172839506172839,43.08641975308642,0)" xlink:href="#au"/><use transform="matrix(0.06172839506172839,0,0,0.06172839506172839,56.60493827160494,0)" xlink:href="#J"/><use transform="matrix(0.06172839506172839,0,0,0.06172839506172839,72.5925925925926,0)" xlink:href="#Z"/><use transform="matrix(0.06172839506172839,0,0,0.06172839506172839,88.58024691358025,0)" xlink:href="#H"/></g><path d="M76-208v77h127v40H76V0H24v-248h183v40H76" id="aD"/><g id="p"><use transform="matrix(0.06172839506172839,0,0,0.06172839506172839,0,0)" xlink:href="#N"/><use transform="matrix(0.06172839506172839,0,0,0.06172839506172839,6.172839506172839,0)" xlink:href="#O"/><use transform="matrix(0.06172839506172839,0,0,0.06172839506172839,22.160493827160494,0)" xlink:href="#P"/><use transform="matrix(0.06172839506172839,0,0,0.06172839506172839,34.50617283950617,0)" xlink:href="#aD"/><use transform="matrix(0.06172839506172839,0,0,0.06172839506172839,46.79012345679012,0)" xlink:href="#av"/><use transform="matrix(0.06172839506172839,0,0,0.06172839506172839,62.77777777777777,0)" xlink:href="#T"/><use transform="matrix(0.06172839506172839,0,0,0.06172839506172839,78.76543209876543,0)" xlink:href="#az"/><use transform="matrix(0.06172839506172839,0,0,0.06172839506172839,92.28395061728395,0)" xlink:href="#U"/><use transform="matrix(0.06172839506172839,0,0,0.06172839506172839,108.27160493827161,0)" xlink:href="#ae"/><use transform="matrix(0.06172839506172839,0,0,0.06172839506172839,124.25925925925927,0)" xlink:href="#av"/></g><path d="M30-248c118-7 216 8 213 122C240-48 200 0 122 0H30v-248zM63-27c89 8 146-16 146-99s-60-101-146-95v194" id="aE"/><path d="M-5 72V49h209v23H-5" id="aF"/><g id="q"><use transform="matrix(0.06172839506172839,0,0,0.06172839506172839,0,0)" xlink:href="#aq"/><use transform="matrix(0.06172839506172839,0,0,0.06172839506172839,14.814814814814813,0)" xlink:href="#aE"/><use transform="matrix(0.06172839506172839,0,0,0.06172839506172839,30.80246913580247,0)" xlink:href="#Z"/><use transform="matrix(0.06172839506172839,0,0,0.06172839506172839,46.79012345679012,0)" xlink:href="#F"/><use transform="matrix(0.06172839506172839,0,0,0.06172839506172839,61.60493827160494,0)" xlink:href="#W"/><use transform="matrix(0.06172839506172839,0,0,0.06172839506172839,76.41975308641975,0)" xlink:href="#F"/><use transform="matrix(0.06172839506172839,0,0,0.06172839506172839,91.23456790123456,0)" xlink:href="#aF"/><use transform="matrix(0.06172839506172839,0,0,0.06172839506172839,103.58024691358024,0)" xlink:href="#W"/><use transform="matrix(0.06172839506172839,0,0,0.06172839506172839,118.39506172839505,0)" xlink:href="#G"/><use transform="matrix(0.06172839506172839,0,0,0.06172839506172839,134.3827160493827,0)" xlink:href="#X"/><use transform="matrix(0.06172839506172839,0,0,0.06172839506172839,151.66666666666666,0)" xlink:href="#Y"/><use transform="matrix(0.06172839506172839,0,0,0.06172839506172839,172.59259259259258,0)" xlink:href="#Z"/><use transform="matrix(0.06172839506172839,0,0,0.06172839506172839,188.58024691358023,0)" xlink:href="#X"/><use transform="matrix(0.06172839506172839,0,0,0.06172839506172839,205.86419753086417,0)" xlink:href="#X"/><use transform="matrix(0.06172839506172839,0,0,0.06172839506172839,223.14814814814812,0)" xlink:href="#aa"/><use transform="matrix(0.06172839506172839,0,0,0.06172839506172839,241.6049382716049,0)" xlink:href="#J"/><use transform="matrix(0.06172839506172839,0,0,0.06172839506172839,257.59259259259255,0)" xlink:href="#Z"/><use transform="matrix(0.06172839506172839,0,0,0.06172839506172839,273.5802469135802,0)" xlink:href="#H"/></g><g id="r"><use transform="matrix(0.06172839506172839,0,0,0.06172839506172839,0,0)" xlink:href="#N"/><use transform="matrix(0.06172839506172839,0,0,0.06172839506172839,6.172839506172839,0)" xlink:href="#O"/><use transform="matrix(0.06172839506172839,0,0,0.06172839506172839,22.160493827160494,0)" xlink:href="#P"/><use transform="matrix(0.06172839506172839,0,0,0.06172839506172839,34.50617283950617,0)" xlink:href="#av"/><use transform="matrix(0.06172839506172839,0,0,0.06172839506172839,50.49382716049382,0)" xlink:href="#O"/><use transform="matrix(0.06172839506172839,0,0,0.06172839506172839,66.48148148148148,0)" xlink:href="#ae"/><use transform="matrix(0.06172839506172839,0,0,0.06172839506172839,82.46913580246914,0)" xlink:href="#R"/><use transform="matrix(0.06172839506172839,0,0,0.06172839506172839,97.28395061728395,0)" xlink:href="#ab"/><use transform="matrix(0.06172839506172839,0,0,0.06172839506172839,112.09876543209876,0)" xlink:href="#av"/><use transform="matrix(0.06172839506172839,0,0,0.06172839506172839,128.0864197530864,0)" xlink:href="#P"/><use transform="matrix(0.06172839506172839,0,0,0.06172839506172839,140.43209876543207,0)" xlink:href="#ab"/><use transform="matrix(0.06172839506172839,0,0,0.06172839506172839,155.24691358024688,0)" xlink:href="#S"/><use transform="matrix(0.06172839506172839,0,0,0.06172839506172839,171.23456790123453,0)" xlink:href="#ac"/><use transform="matrix(0.06172839506172839,0,0,0.06172839506172839,188.51851851851848,0)" xlink:href="#ad"/><use transform="matrix(0.06172839506172839,0,0,0.06172839506172839,209.4444444444444,0)" xlink:href="#ae"/><use transform="matrix(0.06172839506172839,0,0,0.06172839506172839,225.43209876543204,0)" xlink:href="#ac"/><use transform="matrix(0.06172839506172839,0,0,0.06172839506172839,242.716049382716,0)" xlink:href="#ac"/><use transform="matrix(0.06172839506172839,0,0,0.06172839506172839,259.99999999999994,0)" xlink:href="#af"/></g><g id="s"><use transform="matrix(0.06172839506172839,0,0,0.06172839506172839,0,0)" xlink:href="#ar"/><use transform="matrix(0.06172839506172839,0,0,0.06172839506172839,15.987654320987653,0)" xlink:href="#J"/><use transform="matrix(0.06172839506172839,0,0,0.06172839506172839,31.975308641975307,0)" xlink:href="#aa"/><use transform="matrix(0.06172839506172839,0,0,0.06172839506172839,50.432098765432094,0)" xlink:href="#F"/><use transform="matrix(0.06172839506172839,0,0,0.06172839506172839,65.24691358024691,0)" xlink:href="#Z"/><use transform="matrix(0.06172839506172839,0,0,0.06172839506172839,81.23456790123457,0)" xlink:href="#F"/><use transform="matrix(0.06172839506172839,0,0,0.06172839506172839,96.04938271604938,0)" xlink:href="#aF"/><use transform="matrix(0.06172839506172839,0,0,0.06172839506172839,108.39506172839506,0)" xlink:href="#au"/><use transform="matrix(0.06172839506172839,0,0,0.06172839506172839,121.91358024691358,0)" xlink:href="#F"/><use transform="matrix(0.06172839506172839,0,0,0.06172839506172839,136.7283950617284,0)" xlink:href="#K"/><use transform="matrix(0.06172839506172839,0,0,0.06172839506172839,149.07407407407408,0)" xlink:href="#F"/><use transform="matrix(0.06172839506172839,0,0,0.06172839506172839,163.88888888888889,0)" xlink:href="#aC"/><use transform="matrix(0.06172839506172839,0,0,0.06172839506172839,177.4074074074074,0)" xlink:href="#X"/><use transform="matrix(0.06172839506172839,0,0,0.06172839506172839,194.69135802469134,0)" xlink:href="#ar"/><use transform="matrix(0.06172839506172839,0,0,0.06172839506172839,210.67901234567898,0)" xlink:href="#aF"/><use transform="matrix(0.06172839506172839,0,0,0.06172839506172839,223.02469135802465,0)" xlink:href="#W"/><use transform="matrix(0.06172839506172839,0,0,0.06172839506172839,237.83950617283946,0)" xlink:href="#G"/><use transform="matrix(0.06172839506172839,0,0,0.06172839506172839,253.82716049382708,0)" xlink:href="#X"/><use transform="matrix(0.06172839506172839,0,0,0.06172839506172839,271.1111111111111,0)" xlink:href="#Y"/><use transform="matrix(0.06172839506172839,0,0,0.06172839506172839,292.037037037037,0)" xlink:href="#Z"/><use transform="matrix(0.06172839506172839,0,0,0.06172839506172839,308.02469135802465,0)" xlink:href="#X"/><use transform="matrix(0.06172839506172839,0,0,0.06172839506172839,325.3086419753086,0)" xlink:href="#X"/><use transform="matrix(0.06172839506172839,0,0,0.06172839506172839,342.59259259259255,0)" xlink:href="#aa"/><use transform="matrix(0.06172839506172839,0,0,0.06172839506172839,361.04938271604937,0)" xlink:href="#J"/><use transform="matrix(0.06172839506172839,0,0,0.06172839506172839,377.037037037037,0)" xlink:href="#Z"/><use transform="matrix(0.06172839506172839,0,0,0.06172839506172839,393.02469135802465,0)" xlink:href="#H"/></g><use transform="matrix(0.04938271604938272,0,0,0.04938271604938272,0,0)" xlink:href="#ai" id="t"/><g id="u"><use transform="matrix(0.04938271604938272,0,0,0.04938271604938272,0,0)" xlink:href="#al"/><use transform="matrix(0.04938271604938272,0,0,0.04938271604938272,11.851851851851853,0)" xlink:href="#ag"/><use transform="matrix(0.04938271604938272,0,0,0.04938271604938272,26.617283950617285,0)" xlink:href="#an"/><use transform="matrix(0.04938271604938272,0,0,0.04938271604938272,31.555555555555557,0)" xlink:href="#am"/></g><g id="v"><use transform="matrix(0.06172839506172839,0,0,0.06172839506172839,0,0)" xlink:href="#ar"/><use transform="matrix(0.06172839506172839,0,0,0.06172839506172839,15.987654320987653,0)" xlink:href="#J"/><use transform="matrix(0.06172839506172839,0,0,0.06172839506172839,31.975308641975307,0)" xlink:href="#aa"/><use transform="matrix(0.06172839506172839,0,0,0.06172839506172839,50.432098765432094,0)" xlink:href="#F"/><use transform="matrix(0.06172839506172839,0,0,0.06172839506172839,65.24691358024691,0)" xlink:href="#Z"/><use transform="matrix(0.06172839506172839,0,0,0.06172839506172839,81.23456790123457,0)" xlink:href="#F"/><use transform="matrix(0.06172839506172839,0,0,0.06172839506172839,96.04938271604938,0)" xlink:href="#aF"/><use transform="matrix(0.06172839506172839,0,0,0.06172839506172839,108.39506172839506,0)" xlink:href="#au"/><use transform="matrix(0.06172839506172839,0,0,0.06172839506172839,121.91358024691358,0)" xlink:href="#F"/><use transform="matrix(0.06172839506172839,0,0,0.06172839506172839,136.7283950617284,0)" xlink:href="#K"/><use transform="matrix(0.06172839506172839,0,0,0.06172839506172839,149.07407407407408,0)" xlink:href="#F"/><use transform="matrix(0.06172839506172839,0,0,0.06172839506172839,163.88888888888889,0)" xlink:href="#aC"/><use transform="matrix(0.06172839506172839,0,0,0.06172839506172839,177.4074074074074,0)" xlink:href="#X"/><use transform="matrix(0.06172839506172839,0,0,0.06172839506172839,194.69135802469134,0)" xlink:href="#ar"/><use transform="matrix(0.06172839506172839,0,0,0.06172839506172839,210.67901234567898,0)" xlink:href="#aF"/><use transform="matrix(0.06172839506172839,0,0,0.06172839506172839,223.02469135802465,0)" xlink:href="#I"/><use transform="matrix(0.06172839506172839,0,0,0.06172839506172839,239.0123456790123,0)" xlink:href="#K"/><use transform="matrix(0.06172839506172839,0,0,0.06172839506172839,251.35802469135797,0)" xlink:href="#H"/><use transform="matrix(0.06172839506172839,0,0,0.06172839506172839,257.53086419753083,0)" xlink:href="#F"/><use transform="matrix(0.06172839506172839,0,0,0.06172839506172839,272.34567901234567,0)" xlink:href="#ar"/><use transform="matrix(0.06172839506172839,0,0,0.06172839506172839,288.3333333333333,0)" xlink:href="#au"/><use transform="matrix(0.06172839506172839,0,0,0.06172839506172839,301.85185185185185,0)" xlink:href="#H"/></g><g id="w"><use transform="matrix(0.06172839506172839,0,0,0.06172839506172839,0,0)" xlink:href="#N"/><use transform="matrix(0.06172839506172839,0,0,0.06172839506172839,6.172839506172839,0)" xlink:href="#O"/><use transform="matrix(0.06172839506172839,0,0,0.06172839506172839,22.160493827160494,0)" xlink:href="#P"/><use transform="matrix(0.06172839506172839,0,0,0.06172839506172839,34.50617283950617,0)" xlink:href="#aw"/><use transform="matrix(0.06172839506172839,0,0,0.06172839506172839,50.49382716049382,0)" xlink:href="#U"/><use transform="matrix(0.06172839506172839,0,0,0.06172839506172839,66.48148148148148,0)" xlink:href="#af"/><use transform="matrix(0.06172839506172839,0,0,0.06172839506172839,84.93827160493827,0)" xlink:href="#av"/><use transform="matrix(0.06172839506172839,0,0,0.06172839506172839,100.92592592592592,0)" xlink:href="#ae"/><use transform="matrix(0.06172839506172839,0,0,0.06172839506172839,116.91358024691358,0)" xlink:href="#P"/><use transform="matrix(0.06172839506172839,0,0,0.06172839506172839,129.25925925925927,0)" xlink:href="#az"/><use transform="matrix(0.06172839506172839,0,0,0.06172839506172839,142.77777777777777,0)" xlink:href="#R"/><use transform="matrix(0.06172839506172839,0,0,0.06172839506172839,157.59259259259258,0)" xlink:href="#V"/><use transform="matrix(0.06172839506172839,0,0,0.06172839506172839,171.1111111111111,0)" xlink:href="#R"/><use transform="matrix(0.06172839506172839,0,0,0.06172839506172839,185.9259259259259,0)" xlink:href="#aD"/><use transform="matrix(0.06172839506172839,0,0,0.06172839506172839,199.4444444444444,0)" xlink:href="#ac"/><use transform="matrix(0.06172839506172839,0,0,0.06172839506172839,216.72839506172835,0)" xlink:href="#aw"/><use transform="matrix(0.06172839506172839,0,0,0.06172839506172839,232.716049382716,0)" xlink:href="#P"/><use transform="matrix(0.06172839506172839,0,0,0.06172839506172839,245.06172839506166,0)" xlink:href="#T"/><use transform="matrix(0.06172839506172839,0,0,0.06172839506172839,261.0493827160493,0)" xlink:href="#V"/><use transform="matrix(0.06172839506172839,0,0,0.06172839506172839,274.56790123456784,0)" xlink:href="#N"/><use transform="matrix(0.06172839506172839,0,0,0.06172839506172839,280.7407407407407,0)" xlink:href="#R"/><use transform="matrix(0.06172839506172839,0,0,0.06172839506172839,295.55555555555554,0)" xlink:href="#aw"/><use transform="matrix(0.06172839506172839,0,0,0.06172839506172839,311.5432098765432,0)" xlink:href="#az"/><use transform="matrix(0.06172839506172839,0,0,0.06172839506172839,325.0617283950617,0)" xlink:href="#N"/></g><g id="x"><use transform="matrix(0.06172839506172839,0,0,0.06172839506172839,0,0)" xlink:href="#aa"/><use transform="matrix(0.06172839506172839,0,0,0.06172839506172839,18.456790123456788,0)" xlink:href="#X"/><use transform="matrix(0.06172839506172839,0,0,0.06172839506172839,35.74074074074073,0)" xlink:href="#au"/><use transform="matrix(0.06172839506172839,0,0,0.06172839506172839,48.82716049382715,0)" xlink:href="#X"/><use transform="matrix(0.06172839506172839,0,0,0.06172839506172839,66.1111111111111,0)" xlink:href="#aq"/><use transform="matrix(0.06172839506172839,0,0,0.06172839506172839,80.92592592592591,0)" xlink:href="#Z"/><use transform="matrix(0.06172839506172839,0,0,0.06172839506172839,96.91358024691357,0)" xlink:href="#F"/></g><g id="y"><use transform="matrix(0.06172839506172839,0,0,0.06172839506172839,0,0)" xlink:href="#N"/><use transform="matrix(0.06172839506172839,0,0,0.06172839506172839,6.172839506172839,0)" xlink:href="#O"/><use transform="matrix(0.06172839506172839,0,0,0.06172839506172839,22.160493827160494,0)" xlink:href="#P"/><use transform="matrix(0.06172839506172839,0,0,0.06172839506172839,34.50617283950617,0)" xlink:href="#af"/><use transform="matrix(0.06172839506172839,0,0,0.06172839506172839,52.96296296296296,0)" xlink:href="#ac"/><use transform="matrix(0.06172839506172839,0,0,0.06172839506172839,70.24691358024691,0)" xlink:href="#az"/><use transform="matrix(0.06172839506172839,0,0,0.06172839506172839,83.33333333333333,0)" xlink:href="#ac"/><use transform="matrix(0.06172839506172839,0,0,0.06172839506172839,100.61728395061728,0)" xlink:href="#ae"/></g><path d="M30-248c87 1 191-15 191 75 0 78-77 80-158 76V0H30v-248zm33 125c57 0 124 11 124-50 0-59-68-47-124-48v98" id="aG"/><g id="z"><use transform="matrix(0.06172839506172839,0,0,0.06172839506172839,0,0)" xlink:href="#X"/><use transform="matrix(0.06172839506172839,0,0,0.06172839506172839,17.28395061728395,0)" xlink:href="#aG"/><use transform="matrix(0.06172839506172839,0,0,0.06172839506172839,32.09876543209876,0)" xlink:href="#au"/><use transform="matrix(0.06172839506172839,0,0,0.06172839506172839,45.61728395061728,0)" xlink:href="#H"/><use transform="matrix(0.06172839506172839,0,0,0.06172839506172839,51.79012345679012,0)" xlink:href="#J"/><use transform="matrix(0.06172839506172839,0,0,0.06172839506172839,67.77777777777777,0)" xlink:href="#ar"/><use transform="matrix(0.06172839506172839,0,0,0.06172839506172839,83.76543209876543,0)" xlink:href="#H"/></g><g id="A"><use transform="matrix(0.06172839506172839,0,0,0.06172839506172839,0,0)" xlink:href="#N"/><use transform="matrix(0.06172839506172839,0,0,0.06172839506172839,6.172839506172839,0)" xlink:href="#O"/><use transform="matrix(0.06172839506172839,0,0,0.06172839506172839,22.160493827160494,0)" xlink:href="#P"/><use transform="matrix(0.06172839506172839,0,0,0.06172839506172839,34.50617283950617,0)" xlink:href="#ac"/><use transform="matrix(0.06172839506172839,0,0,0.06172839506172839,51.79012345679012,0)" xlink:href="#L"/><use transform="matrix(0.06172839506172839,0,0,0.06172839506172839,66.60493827160494,0)" xlink:href="#az"/><use transform="matrix(0.06172839506172839,0,0,0.06172839506172839,80.12345679012346,0)" xlink:href="#N"/><use transform="matrix(0.06172839506172839,0,0,0.06172839506172839,86.29629629629629,0)" xlink:href="#U"/><use transform="matrix(0.06172839506172839,0,0,0.06172839506172839,102.28395061728395,0)" xlink:href="#aw"/><use transform="matrix(0.06172839506172839,0,0,0.06172839506172839,118.27160493827161,0)" xlink:href="#R"/></g><g id="B"><use transform="matrix(0.03703703703703704,0,0,0.03703703703703704,0,0)" xlink:href="#aA"/><use transform="matrix(0.03703703703703704,0,0,0.03703703703703704,9.592592592592593,0)" xlink:href="#aB"/></g><path fill="#333" d="M182 0l-62-99L58 0H3l86-130-79-118h55l55 88 55-88h55l-75 118L237 0h-55" id="aH"/><path fill="#333" d="M240-174c0 40-23 61-54 70L253 0h-59l-57-94H76V0H24v-248c93 4 217-23 216 74zM76-134c48-2 112 12 112-38 0-48-66-32-112-35v73" id="aI"/><g id="C"><use transform="matrix(0.03703703703703704,0,0,0.03703703703703704,0,0)" xlink:href="#al"/><use transform="matrix(0.03703703703703704,0,0,0.03703703703703704,8.88888888888889,0)" xlink:href="#aH"/><use transform="matrix(0.03703703703703704,0,0,0.03703703703703704,17.77777777777778,0)" xlink:href="#am"/><use transform="matrix(0.03703703703703704,0,0,0.03703703703703704,25.888888888888893,0)" xlink:href="#aI"/><use transform="matrix(0.03703703703703704,0,0,0.03703703703703704,35.48148148148149,0)" xlink:href="#aA"/></g><path fill="#333" d="M67-125c0 53 21 87 73 88 37 1 54-22 65-47l45 17C233-25 199 4 140 4 58 4 20-42 15-125 8-235 124-281 211-232c18 10 29 29 36 50l-46 12c-8-25-30-41-62-41-52 0-71 34-72 86" id="aJ"/><path fill="#333" d="M140-251c80 0 125 45 125 126S219 4 139 4C58 4 15-44 15-125s44-126 125-126zm-1 214c52 0 73-35 73-88 0-50-21-86-72-86-52 0-73 35-73 86s22 88 72 88" id="aK"/><g id="D"><use transform="matrix(0.04938271604938272,0,0,0.04938271604938272,0,0)" xlink:href="#aJ"/><use transform="matrix(0.04938271604938272,0,0,0.04938271604938272,12.790123456790125,0)" xlink:href="#aK"/><use transform="matrix(0.04938271604938272,0,0,0.04938271604938272,26.617283950617285,0)" xlink:href="#ao"/><use transform="matrix(0.04938271604938272,0,0,0.04938271604938272,39.40740740740741,0)" xlink:href="#am"/><use transform="matrix(0.04938271604938272,0,0,0.04938271604938272,50.22222222222223,0)" xlink:href="#an"/><use transform="matrix(0.04938271604938272,0,0,0.04938271604938272,55.1604938271605,0)" xlink:href="#ao"/></g></defs></g></svg>